<svg id="Фон" xmlns="http://www.w3.org/2000/svg" viewBox="0 0 1920 1080"><title>Монтажная область 1</title><rect width="1920" height="1080" style="fill:#2e4362"/><g style="opacity:0.44"><path d="M1521,1035c172.21,186.17,143.88,309.7,40.42,562.87-395.93,968.86-442.25-167.42-976.8-184.26-883.55-27.82,186.47-911.09,542.69-881.94C1449,558,1188,675,1521,1035Z" style="fill:#fff;opacity:0.23"/><path d="M842,426C643,733.69,126,245-332.84,459.54-571.68,571.21-219.13,197.08-91.2-24.52S407.54-859.14,554.92-186.47C629,151.67,976.89,217.46,842,426Z" style="fill:#fff;opacity:0.23"/><path d="M2307,65.37c4.22,157.18,288.34,389.33,107.9,594.85C1884,1265,1888.71,442.12,1389.21,438.32c-884-6.72,181-922.85,558-872.33S2298.1-267.08,2307,65.37Z" style="fill:#fff;opacity:0.23"/></g></svg>