<svg xmlns="http://www.w3.org/2000/svg" viewBox="0 0 188 68"><defs><style>.cls-1{fill:#fff;}.cls-2{fill:#1b1464;opacity:0.8;}</style></defs><title>Enter_1</title><g id="Слой_2" data-name="Слой 2"><g id="Строка"><rect class="cls-1" width="188" height="68"/><path class="cls-2" d="M25.74,49.29a2.16,2.16,0,0,1-.6-1.6v-26a2.06,2.06,0,0,1,2.2-2.2h16.6a3.76,3.76,0,0,1,.3.68,2.73,2.73,0,0,1,.15.92,2.13,2.13,0,0,1-.4,1.35,1.4,1.4,0,0,1-1.15.5H29.19v9.65h13.2a4,4,0,0,1,.3.67,2.83,2.83,0,0,1,.15.93,2,2,0,0,1-.4,1.32,1.42,1.42,0,0,1-1.15.48H29.19v10.5h15a4,4,0,0,1,.3.65,2.71,2.71,0,0,1,.15,1,2,2,0,0,1-.4,1.33,1.44,1.44,0,0,1-1.15.47H27.34A2.16,2.16,0,0,1,25.74,49.29Z"/><path class="cls-2" d="M71.26,30.74A6.41,6.41,0,0,0,67,29.44a11.61,11.61,0,0,0-3.55.5,12.92,12.92,0,0,0-2.65,1.15v18.7a5.62,5.62,0,0,1-.75.22,4.25,4.25,0,0,1-1.1.13c-1.44,0-2.15-.6-2.15-1.8V31.29a3.24,3.24,0,0,1,.42-1.73,4.45,4.45,0,0,1,1.48-1.32,14.65,14.65,0,0,1,3.45-1.45A16.84,16.84,0,0,1,67,26.14a11.34,11.34,0,0,1,7.17,2.05q2.63,2.05,2.63,6.45V49.79a5.44,5.44,0,0,1-.78.22,4.29,4.29,0,0,1-1.07.13c-1.44,0-2.15-.6-2.15-1.8V34.84A5,5,0,0,0,71.26,30.74Z"/><path class="cls-2" d="M98.24,50.54A9.59,9.59,0,0,1,92.56,49q-2.18-1.55-2.18-5.15V20.09a6.77,6.77,0,0,1,.78-.23,5,5,0,0,1,1.13-.12c1.39,0,2.09.6,2.09,1.8v5.75h8.2a3.3,3.3,0,0,1,.3.67,2.6,2.6,0,0,1,.16.93c0,1.13-.5,1.7-1.5,1.7H94.38v13a3.3,3.3,0,0,0,1.13,2.83,5.36,5.36,0,0,0,3.17.82,7,7,0,0,0,1.9-.3,7.48,7.48,0,0,0,1.75-.7,2.91,2.91,0,0,1,.55.75,2.09,2.09,0,0,1,.25,1,2.06,2.06,0,0,1-1.3,1.8A7.58,7.58,0,0,1,98.24,50.54Z"/><path class="cls-2" d="M117,40.69q1.35,6.56,8.6,6.55a9.82,9.82,0,0,0,3.8-.7,11.09,11.09,0,0,0,2.7-1.5,2.13,2.13,0,0,1,1.2,1.9,1.91,1.91,0,0,1-.62,1.35,5.62,5.62,0,0,1-1.7,1.15,11.85,11.85,0,0,1-2.5.8,15,15,0,0,1-3.08.3q-5.79,0-9.17-3.15t-3.38-9.2a14.59,14.59,0,0,1,.83-5.08,10.91,10.91,0,0,1,2.3-3.77A10,10,0,0,1,119.53,27a12,12,0,0,1,4.45-.82,11.18,11.18,0,0,1,4.15.75A9.61,9.61,0,0,1,131.41,29a9.91,9.91,0,0,1,2.15,3.25,10.66,10.66,0,0,1,.77,4.13,2.06,2.06,0,0,1-.5,1.57,2.34,2.34,0,0,1-1.4.58Zm6.9-11.3a6.67,6.67,0,0,0-5.05,2.12,8.93,8.93,0,0,0-2.1,6.08l13.75-1.9a7.27,7.27,0,0,0-1.92-4.52A6.11,6.11,0,0,0,123.93,29.39Z"/><path class="cls-2" d="M150.13,49.79a4.83,4.83,0,0,1-.75.22,4.18,4.18,0,0,1-1.09.13q-2.16,0-2.16-1.8v-17a3.44,3.44,0,0,1,.43-1.83A4.59,4.59,0,0,1,148,28.24a13,13,0,0,1,3.53-1.48,18.87,18.87,0,0,1,5-.62c2.66,0,4,.67,4,2a2.73,2.73,0,0,1-.16.92,2.06,2.06,0,0,1-.4.73c-.33-.07-.76-.13-1.3-.2a12.17,12.17,0,0,0-1.6-.1,15.73,15.73,0,0,0-4,.47,13.1,13.1,0,0,0-2.91,1.13Z"/></g></g></svg>