<svg xmlns="http://www.w3.org/2000/svg" viewBox="0 0 1038.59 190.5"><defs><style>.cls-1{fill:#fff;}</style></defs><title>text</title><g id="Слой_2" data-name="Слой 2"><g id="Текст"><path class="cls-1" d="M60.9,169.8q20.1,0,30.45-9.15T101.7,137.1q0-12.6-8-20.4t-25-12.9L42.6,96Q23.4,90.3,12.45,79.2T1.5,49.2A47.27,47.27,0,0,1,5.85,28.65,42.4,42.4,0,0,1,18.3,13.2,59.66,59.66,0,0,1,37.65,3.45,86.35,86.35,0,0,1,63,0,120.77,120.77,0,0,1,85.35,2a79.82,79.82,0,0,1,18,5.4A39.78,39.78,0,0,1,115.2,15q4.2,4.2,4.2,8.7a12.24,12.24,0,0,1-2.1,7.2,15.62,15.62,0,0,1-5.4,4.8q-7.8-6-20.25-10.5A81.18,81.18,0,0,0,63.9,20.7q-17.7,0-27.75,7.5t-10,21q0,10.5,7.2,17.1t24,11.4l18.3,5.4Q99.3,90,113,102.45T126.6,137.1q0,23.7-17.1,38.4T60.9,190.2a120.37,120.37,0,0,1-25-2.4,83.14,83.14,0,0,1-19.2-6.3A42.05,42.05,0,0,1,4.35,173Q0,168.3,0,163.8a12.21,12.21,0,0,1,3.15-8.55,18.09,18.09,0,0,1,7.35-4.95,65.66,65.66,0,0,0,8.1,6.75,64.59,64.59,0,0,0,11.1,6.3A75.21,75.21,0,0,0,43.8,168,76.05,76.05,0,0,0,60.9,169.8Z"/><path class="cls-1" d="M193.2,131.1q8.1,39.3,51.6,39.3a59.37,59.37,0,0,0,22.8-4.2,67.12,67.12,0,0,0,16.2-9q7.2,4.2,7.2,11.4,0,4.2-3.75,8.1a33.82,33.82,0,0,1-10.2,6.9,69.78,69.78,0,0,1-15,4.8,89.52,89.52,0,0,1-18.45,1.8q-34.82,0-55-18.9T168.3,116.1q0-17.1,4.95-30.45A65.32,65.32,0,0,1,187.05,63,59.26,59.26,0,0,1,208.2,48.75a70.85,70.85,0,0,1,26.7-5,67.27,67.27,0,0,1,24.9,4.5,57.14,57.14,0,0,1,19.65,12.75,59.42,59.42,0,0,1,12.9,19.5A64.18,64.18,0,0,1,297,105.3c0,4.4-1,7.55-3,9.45a14.08,14.08,0,0,1-8.4,3.45Zm41.4-67.8q-18.3,0-30.3,12.75T191.7,112.5l82.5-11.4Q272.69,84.6,262.65,74T234.6,63.3Z"/><path class="cls-1" d="M398.7,43.8q26.1,0,41.4,11.7t15.3,36.9v71.1c0,4.4-.86,7.75-2.55,10.05A25.26,25.26,0,0,1,445.2,180q-7.2,4.2-19.05,7.35A106.08,106.08,0,0,1,399,190.5q-28.22,0-43.65-11.1T339.9,147.3q0-19.8,12.9-29.85T389.1,105l42.6-4.2V92.4q0-15-9-21.9t-24.3-6.9a76.32,76.32,0,0,0-23.7,3.6,130.49,130.49,0,0,0-19.8,8.1,28.16,28.16,0,0,1-4.35-4.8,9.94,9.94,0,0,1-1.95-6,10.85,10.85,0,0,1,2.1-6.9,20.3,20.3,0,0,1,6.6-5.1,73.78,73.78,0,0,1,18.6-6.45A108.74,108.74,0,0,1,398.7,43.8Zm.3,126.9q12.6,0,20.85-2.55t11.85-5V119.7l-37.2,3.9q-15.6,1.5-23.1,7.05T363.9,147q0,11.4,8.7,17.55T399,170.7Z"/><path class="cls-1" d="M545.69,185.7q-1.8.6-4.79,1.35a27.32,27.32,0,0,1-6.6.75q-13.21,0-13.2-11.1V17.1c0-3.2.79-5.65,2.39-7.35s4.1-3,7.5-4a107.51,107.51,0,0,1,21.45-3.9Q565.19.6,577.19.6,615,.6,633.44,15.75T651.9,58.8q0,20.7-10.66,34.8T609,113.7l15,19.2q7.5,9.6,14.25,18.15t12,15.45q5.25,6.9,8.25,10.8A14.5,14.5,0,0,1,645,188.4a13.87,13.87,0,0,1-8.39-2.4,32.15,32.15,0,0,1-6.91-7.5L585.9,117.3H545.69ZM579.9,96.9q22.19,0,34.79-9.6T627.3,58.8q0-18.9-13.2-28.35T576.3,21q-8.1,0-16.36.75T545.4,23.7V96.9Z"/><path class="cls-1" d="M840.89,24a10.75,10.75,0,0,1-2.55,7.2,16.74,16.74,0,0,1-5.85,4.5,119.31,119.31,0,0,0-18.3-10.2q-10.5-4.8-27.3-4.8a66.54,66.54,0,0,0-25.5,4.8A57.54,57.54,0,0,0,741,39.6,65.45,65.45,0,0,0,727.34,63q-5,14.1-5,32.4,0,18.6,4.8,32.4a65.33,65.33,0,0,0,13.35,23.1,54,54,0,0,0,20.55,13.95,73.35,73.35,0,0,0,26.7,4.65q15.6,0,27.15-4.35a74.85,74.85,0,0,0,19.35-10.35,15,15,0,0,1,5.7,4.35,11,11,0,0,1,2.7,7.35q0,6.3-7.2,11.4-6.9,4.8-18.9,8.55T786,190.2a100.29,100.29,0,0,1-35.1-6,76.92,76.92,0,0,1-28-17.85Q711,154.5,704.09,136.8t-6.9-41.4q0-23.7,7-41.55a86.48,86.48,0,0,1,19-29.85A77.65,77.65,0,0,1,751.34,6a95.59,95.59,0,0,1,33.75-6,114,114,0,0,1,22.65,2.1,78.64,78.64,0,0,1,17.7,5.55,36.7,36.7,0,0,1,11.4,7.8Q840.89,19.8,840.89,24Z"/><path class="cls-1" d="M1033.79,187.05a27.2,27.2,0,0,1-6.6.75q-13.2,0-13.2-11.1V104.1h-93.6v81.6q-1.8.6-4.8,1.35a27.2,27.2,0,0,1-6.6.75q-13.2,0-13.2-11.1V4.5a36.09,36.09,0,0,1,4.65-1.35,29.08,29.08,0,0,1,6.75-.75q13.2,0,13.2,11.1V83.7H1014V4.5a36.09,36.09,0,0,1,4.65-1.35,29.08,29.08,0,0,1,6.75-.75q13.2,0,13.2,11.1V185.7Q1036.79,186.3,1033.79,187.05Z"/></g></g></svg>